<svg width="66" height="66" viewBox="0 0 66 66" fill="none" xmlns="http://www.w3.org/2000/svg">
<path d="M33 6.32031C31.0901 6.32031 28.9884 6.86875 27.1982 7.39891C25.443 7.92297 24.1539 8.46328 24.1044 8.4775H24.0426L18.1108 10.4478L17.9169 10.5087C17.6557 10.5808 17.3983 10.6656 17.1456 10.7627L16.5 10.9556V11.0206C14.7758 11.7498 12.0759 13.3281 10.5064 16.6066C8.37169 21.0469 8.25 26.5678 8.25 26.5678V30.6953H16.5V59.1328H49.5V30.6953H57.75V26.4419C57.75 26.4419 57.5726 24.7214 57.2344 22.6333C56.8961 20.5472 56.5496 18.2458 55.3657 16.4136C53.9347 14.1635 51.9064 12.3415 49.5 11.1445V10.9536L48.6626 10.6997C48.5409 10.6448 48.5657 10.6773 48.4688 10.6367L48.081 10.5087L41.9595 8.4775H41.8935C41.8461 8.46328 40.557 7.92297 38.7998 7.40094C37.0116 6.86875 34.9119 6.32031 33 6.32031ZM33 10.3828C33.8951 10.3828 35.9411 10.85 37.5767 11.3355C38.0036 11.4614 37.9789 11.4695 38.3501 11.5894C38.2202 11.7783 38.1233 11.9611 37.9624 12.1602C36.9971 13.3423 35.6421 14.4453 33 14.4453C30.3579 14.4453 29.0029 13.3423 28.0376 12.1602C27.8767 11.9611 27.7798 11.7783 27.6499 11.5894C28.0211 11.4695 27.9964 11.4614 28.4233 11.3355C30.0589 10.85 32.1049 10.3828 33 10.3828ZM23.5888 12.8589C23.8961 13.4378 24.2901 14.0573 24.8139 14.6992C25.7974 15.9021 27.045 16.8697 28.4629 17.5294C29.8807 18.189 31.432 18.5236 33 18.5078C36.9311 18.5078 39.6619 16.5639 41.1861 14.6992C41.7099 14.0573 42.1039 13.4378 42.4091 12.8589L45.375 13.8745V55.0703H20.625V13.8745L23.5888 12.8589ZM16.5 15.5869V26.6328H12.375C12.3833 26.5211 12.6968 21.6014 14.2436 18.3798C14.7532 17.2821 15.5278 16.3239 16.5 15.5889V15.5869ZM49.5 15.9058C50.2569 16.5314 51.0943 17.348 51.8843 18.5708C52.2142 19.0867 52.8598 21.3637 53.1733 23.2691C53.4724 25.0688 53.6085 26.4744 53.625 26.6328H49.5V15.9058Z" fill="black"/>
</svg>
