<svg width="55" height="55" viewBox="0 0 55 55" fill="none" xmlns="http://www.w3.org/2000/svg">
<path d="M6.87508 11.4583V10.3125C6.57119 10.3125 6.27974 10.4332 6.06486 10.6481C5.84997 10.863 5.72925 11.1544 5.72925 11.4583H6.87508ZM48.1251 11.4583H49.2709C49.2709 11.1544 49.1502 10.863 48.9353 10.6481C48.7204 10.4332 48.429 10.3125 48.1251 10.3125V11.4583ZM6.87508 12.6042H48.1251V10.3125H6.87508V12.6042ZM46.9792 11.4583V38.9583H49.2709V11.4583H46.9792ZM43.5417 42.3958H11.4584V44.6875H43.5417V42.3958ZM8.02091 38.9583V11.4583H5.72925V38.9583H8.02091ZM11.4584 42.3958C10.5467 42.3958 9.67239 42.0337 9.02774 41.389C8.38308 40.7444 8.02091 39.87 8.02091 38.9583H5.72925C5.72925 40.4778 6.33285 41.935 7.40728 43.0095C8.48171 44.0839 9.93895 44.6875 11.4584 44.6875V42.3958ZM46.9792 38.9583C46.9792 39.87 46.6171 40.7444 45.9724 41.389C45.3278 42.0337 44.4534 42.3958 43.5417 42.3958V44.6875C45.0612 44.6875 46.5185 44.0839 47.5929 43.0095C48.6673 41.935 49.2709 40.4778 49.2709 38.9583H46.9792Z" fill="black"/>
<path d="M6.875 11.4583L27.5 32.0833L48.125 11.4583" stroke="black" stroke-linecap="round" stroke-linejoin="round"/>
</svg>
