<svg width="50" height="49" viewBox="0 0 50 49" fill="none" xmlns="http://www.w3.org/2000/svg">
<path d="M25 44.9166C23.2958 44.9166 21.6667 44.2428 18.4104 42.8994C10.3042 39.5531 6.25 37.881 6.25 35.0655V15.3982M25 44.9166C26.7042 44.9166 28.3333 44.2428 31.5896 42.8994C39.6958 39.5531 43.75 37.881 43.75 35.0655V15.3982M25 44.9166V24.5612M6.25 15.3982C6.25 16.6497 7.92083 17.4398 11.2604 19.018L17.3437 21.8968C21.1021 23.673 22.9792 24.5612 25 24.5612M6.25 15.3982C6.25 14.1487 7.92083 13.3585 11.2604 11.7803L14.5833 10.2083M43.75 15.3982C43.75 16.6497 42.0792 17.4398 38.7396 19.018L32.6562 21.8968C28.8979 23.673 27.0208 24.5612 25 24.5612M43.75 15.3982C43.75 14.1487 42.0792 13.3585 38.7396 11.7803L35.4167 10.2083M12.5 26.5947L16.6667 28.6302M20.8333 4.08325L25 8.16659M25 8.16659L29.1667 12.2499M25 8.16659L20.8333 12.2499M25 8.16659L29.1667 4.08325" stroke="black" stroke-width="1.5" stroke-linecap="round" stroke-linejoin="round"/>
</svg>
