<svg width="40" height="40" viewBox="0 0 40 40" fill="none" xmlns="http://www.w3.org/2000/svg">
<g clip-path="url(#clip0_343_127)">
<path fill-rule="evenodd" clip-rule="evenodd" d="M0 4.99994C0 3.83744 0 3.25744 0.1275 2.77994C0.297981 2.14461 0.632584 1.5653 1.09772 1.10016C1.56286 0.635025 2.14217 0.300422 2.7775 0.129941C3.255 0.00244142 3.835 0.00244141 5 0.00244141C6.165 0.00244141 6.7425 0.00244142 7.22 0.129941C8.515 0.477441 9.525 1.48744 9.87 2.77994C9.9975 3.25744 9.9975 3.83744 9.9975 4.99994C9.9975 6.16244 9.9975 6.74244 9.8725 7.21994C9.70202 7.85527 9.36742 8.43458 8.90228 8.89972C8.43714 9.36486 7.85783 9.69946 7.2225 9.86994C6.7425 9.99744 6.1625 9.99744 5 9.99744C3.8375 9.99744 3.2575 9.99744 2.78 9.86994C2.14467 9.69946 1.56536 9.36486 1.10022 8.89972C0.635084 8.43458 0.300481 7.85527 0.13 7.21994C0 6.74244 0 6.16244 0 4.99994ZM5 7.49994C4.395 7.49994 4.0275 7.49994 3.7475 7.48744C3.6403 7.48432 3.53341 7.4743 3.4275 7.45744C3.21522 7.40073 3.02163 7.28905 2.86626 7.13368C2.71089 6.97831 2.59922 6.78473 2.5425 6.57244C2.545 6.58244 2.525 6.51994 2.5125 6.25244C2.5 5.97244 2.5 5.59994 2.5 4.99994C2.5 4.39994 2.5 4.02744 2.5125 3.74744C2.525 3.47994 2.545 3.41744 2.5425 3.42744C2.59922 3.21516 2.71089 3.02157 2.86626 2.8662C3.02163 2.71083 3.21522 2.59916 3.4275 2.54244C3.4175 2.54494 3.48 2.52494 3.7475 2.51244C4.0275 2.49994 4.3975 2.49994 5 2.49994C5.6025 2.49994 5.9725 2.49994 6.2525 2.51244C6.52 2.52494 6.5825 2.54494 6.5725 2.54244C6.78478 2.59916 6.97837 2.71083 7.13374 2.8662C7.28911 3.02157 7.40078 3.21516 7.4575 3.42744C7.455 3.41744 7.475 3.47994 7.4875 3.74744C7.5 4.02744 7.5 4.39744 7.5 4.99994C7.5 5.60244 7.5 5.97244 7.4875 6.25244C7.48437 6.35964 7.47435 6.46653 7.4575 6.57244C7.40078 6.78473 7.28911 6.97831 7.13374 7.13368C6.97837 7.28905 6.78478 7.40073 6.5725 7.45744C6.5825 7.45494 6.52 7.47494 6.2525 7.48744C5.9725 7.49994 5.6025 7.49994 5 7.49994ZM12.5 34.9999C12.5 33.8374 12.5 33.2549 12.6275 32.7799C12.798 32.1446 13.1326 31.5653 13.5977 31.1002C14.0629 30.635 14.6422 30.3004 15.2775 30.1299C15.755 30.0024 16.335 30.0024 17.4975 30.0024C18.66 30.0024 19.24 30.0024 19.7175 30.1299C21.0125 30.4774 22.0225 31.4874 22.3675 32.7799C22.495 33.2574 22.495 33.8374 22.495 34.9999C22.495 36.1624 22.495 36.7449 22.37 37.2199C22.1995 37.8553 21.8649 38.4346 21.3998 38.8997C20.9346 39.3649 20.3553 39.6995 19.72 39.8699C19.24 39.9974 18.66 39.9974 17.4975 39.9974C16.335 39.9974 15.755 39.9974 15.2775 39.8699C14.6422 39.6995 14.0629 39.3649 13.5977 38.8997C13.1326 38.4346 12.798 37.8553 12.6275 37.2199C12.5 36.7424 12.5 36.1624 12.5 34.9999ZM17.5 37.4999C16.895 37.4999 16.5275 37.4999 16.2475 37.4874C16.1403 37.4843 16.0334 37.4743 15.9275 37.4574C15.7152 37.4007 15.5216 37.2891 15.3663 37.1337C15.2109 36.9783 15.0992 36.7847 15.0425 36.5724C15.045 36.5824 15.025 36.5199 15.0125 36.2524C15 35.9724 15 35.6024 15 34.9999C15 34.3974 15 34.0274 15.0125 33.7474C15.025 33.4799 15.045 33.4174 15.0425 33.4274C15.0992 33.2152 15.2109 33.0216 15.3663 32.8662C15.5216 32.7108 15.7152 32.5992 15.9275 32.5424C15.9175 32.5449 15.98 32.5249 16.2475 32.5124C16.5275 32.4999 16.8975 32.4999 17.5 32.4999C18.1025 32.4999 18.4725 32.4999 18.7525 32.5124C19.02 32.5249 19.0825 32.5449 19.0725 32.5424C19.2848 32.5992 19.4784 32.7108 19.6337 32.8662C19.7891 33.0216 19.9008 33.2152 19.9575 33.4274C19.9575 33.4274 19.975 33.4974 19.9875 33.7474C20 34.0274 20 34.3974 20 34.9999C20 35.6024 20 35.9724 19.9875 36.2524C19.9844 36.3596 19.9744 36.4665 19.9575 36.5724C19.9008 36.7847 19.7891 36.9783 19.6337 37.1337C19.4784 37.2891 19.2848 37.4007 19.0725 37.4574C19.0825 37.4549 19.02 37.4749 18.7525 37.4874C18.4725 37.4999 18.1025 37.4999 17.5 37.4999ZM12.625 17.7749C12.4975 18.2524 12.4975 18.8324 12.4975 19.9949C12.4975 21.1574 12.4975 21.7374 12.625 22.2149C12.9725 23.5099 13.9825 24.5199 15.275 24.8649C15.7525 24.9924 16.3325 24.9924 17.495 24.9924C18.6575 24.9924 19.2375 24.9924 19.715 24.8649C20.3503 24.6945 20.9296 24.3599 21.3948 23.8947C21.8599 23.4296 22.1945 22.8503 22.365 22.2149C22.4925 21.7374 22.4925 21.1574 22.4925 19.9949C22.4925 18.8324 22.4925 18.2524 22.365 17.7749C22.1945 17.1396 21.8599 16.5603 21.3948 16.0952C20.9296 15.63 20.3503 15.2954 19.715 15.1249C19.2375 14.9974 18.6575 14.9974 17.495 14.9974C16.3325 14.9974 15.7525 14.9974 15.275 15.1249C14.6397 15.2954 14.0604 15.63 13.5952 16.0952C13.1301 16.5603 12.7955 17.1396 12.625 17.7749ZM16.25 22.4749C16.53 22.4874 16.9 22.4874 17.5025 22.4874C18.105 22.4874 18.475 22.4874 18.755 22.4749C19.005 22.4624 19.075 22.4449 19.075 22.4449C19.2865 22.3881 19.4794 22.2766 19.6343 22.1217C19.7892 21.9668 19.9006 21.774 19.9575 21.5624C19.9575 21.5549 19.975 21.4774 19.9875 21.2424C20 20.9624 20 20.5924 20 19.9924C20 19.3924 20 19.0174 19.9875 18.7374C19.975 18.4699 19.955 18.4074 19.9575 18.4174C19.9008 18.2052 19.7891 18.0116 19.6337 17.8562C19.4784 17.7008 19.2848 17.5892 19.0725 17.5324C18.9665 17.5164 18.8596 17.5072 18.7525 17.5049C18.4725 17.4899 18.1025 17.4899 17.5 17.4899C16.8975 17.4899 16.5275 17.4899 16.2475 17.5024C15.98 17.5149 15.9175 17.5349 15.9275 17.5324C15.7152 17.5892 15.5216 17.7008 15.3663 17.8562C15.2109 18.0116 15.0992 18.2052 15.0425 18.4174C15.045 18.4074 15.025 18.4724 15.0125 18.7374C15 19.0174 15 19.3874 15 19.9899C15 20.5924 15 20.9649 15.0125 21.2424C15.025 21.5099 15.045 21.5724 15.0425 21.5624C15.0992 21.7747 15.2109 21.9683 15.3663 22.1237C15.5216 22.2791 15.7152 22.3907 15.9275 22.4474C16.0334 22.4643 16.1403 22.4743 16.2475 22.4774L16.25 22.4749Z" fill="black"/>
<path d="M16.25 5C15.9185 5 15.6005 5.1317 15.3661 5.36612C15.1317 5.60054 15 5.91848 15 6.25C15 6.58152 15.1317 6.89946 15.3661 7.13388C15.6005 7.3683 15.9185 7.5 16.25 7.5H38.75C39.0815 7.5 39.3995 7.3683 39.6339 7.13388C39.8683 6.89946 40 6.58152 40 6.25C40 5.91848 39.8683 5.60054 39.6339 5.36612C39.3995 5.1317 39.0815 5 38.75 5H16.25ZM3.75 12.5C4.08152 12.5 4.39946 12.6317 4.63388 12.8661C4.8683 13.1005 5 13.4185 5 13.75V20H6.25C6.58152 20 6.89946 20.1317 7.13388 20.3661C7.3683 20.6005 7.5 20.9185 7.5 21.25C7.5 21.5815 7.3683 21.8995 7.13388 22.1339C6.89946 22.3683 6.58152 22.5 6.25 22.5H5V35H6.25C6.58152 35 6.89946 35.1317 7.13388 35.3661C7.3683 35.6005 7.5 35.9185 7.5 36.25C7.5 36.5815 7.3683 36.8995 7.13388 37.1339C6.89946 37.3683 6.58152 37.5 6.25 37.5H3.75C3.41848 37.5 3.10054 37.3683 2.86612 37.1339C2.6317 36.8995 2.5 36.5815 2.5 36.25V13.75C2.5 13.4185 2.6317 13.1005 2.86612 12.8661C3.10054 12.6317 3.41848 12.5 3.75 12.5ZM28.75 35C28.4185 35 28.1005 35.1317 27.8661 35.3661C27.6317 35.6005 27.5 35.9185 27.5 36.25C27.5 36.5815 27.6317 36.8995 27.8661 37.1339C28.1005 37.3683 28.4185 37.5 28.75 37.5H38.75C39.0815 37.5 39.3995 37.3683 39.6339 37.1339C39.8683 36.8995 40 36.5815 40 36.25C40 35.9185 39.8683 35.6005 39.6339 35.3661C39.3995 35.1317 39.0815 35 38.75 35H28.75ZM28.75 20C28.4185 20 28.1005 20.1317 27.8661 20.3661C27.6317 20.6005 27.5 20.9185 27.5 21.25C27.5 21.5815 27.6317 21.8995 27.8661 22.1339C28.1005 22.3683 28.4185 22.5 28.75 22.5H38.75C39.0815 22.5 39.3995 22.3683 39.6339 22.1339C39.8683 21.8995 40 21.5815 40 21.25C40 20.9185 39.8683 20.6005 39.6339 20.3661C39.3995 20.1317 39.0815 20 38.75 20H28.75Z" fill="black"/>
</g>
<rect x="1.5" y="1.5" width="37" height="37" stroke="black" stroke-width="3"/>
<defs>
<clipPath id="clip0_343_127">
<rect width="40" height="40" fill="white"/>
</clipPath>
</defs>
</svg>
