<svg width="71" height="71" viewBox="0 0 71 71" fill="none" xmlns="http://www.w3.org/2000/svg">
<path d="M20.7082 5.91675C17.454 5.91675 14.7915 8.57925 14.7915 11.8334V56.2084C14.7915 57.7776 15.4149 59.2825 16.5245 60.3921C17.634 61.5017 19.139 62.1251 20.7082 62.1251V65.0834H26.6248V62.1251H44.3748V65.0834H50.2915V62.1251C53.5753 62.1251 56.2082 59.4922 56.2082 56.2084V11.8334C56.2082 10.2642 55.5848 8.75929 54.4752 7.6497C53.3656 6.54011 51.8607 5.91675 50.2915 5.91675H20.7082ZM20.7082 11.8334H50.2915V20.7084H20.7082V11.8334ZM20.7082 26.6251H50.2915V35.5001H20.7082V26.6251ZM20.7082 41.4167H32.5415V56.2084H20.7082V41.4167ZM38.4582 41.4167H50.2915V56.2084H38.4582V41.4167ZM23.6665 44.3751V53.2501H29.5832V44.3751H23.6665ZM41.4165 44.3751V53.2501H47.3332V44.3751H41.4165Z" fill="black"/>
</svg>
