<svg width="40" height="40" viewBox="0 0 40 40" fill="none" xmlns="http://www.w3.org/2000/svg">
<g clip-path="url(#clip0_343_134)">
<path d="M20.48 0C26.77 0 32.594 2.79 36.456 7.488C36.566 7.62117 36.6481 7.77511 36.6975 7.94067C36.7468 8.10622 36.7623 8.28 36.7431 8.45167C36.7238 8.62334 36.6703 8.78939 36.5856 8.93994C36.5009 9.09049 36.3867 9.22246 36.25 9.328C35.9716 9.5462 35.6192 9.64737 35.2674 9.61003C34.9157 9.57269 34.5924 9.39979 34.366 9.128C32.6774 7.08234 30.5556 5.43708 28.154 4.31094C25.7523 3.18481 23.1306 2.6059 20.478 2.616C10.648 2.616 2.678 10.4 2.678 20C2.678 29.6 10.648 37.384 20.478 37.384C23.1688 37.3946 25.8275 36.799 28.2566 35.6416C30.6858 34.4841 32.8231 32.7945 34.51 30.698C34.7326 30.4234 35.0533 30.2463 35.4042 30.2041C35.7551 30.1619 36.1087 30.258 36.39 30.472C36.5279 30.5757 36.6436 30.7062 36.7302 30.8555C36.8167 31.0048 36.8724 31.17 36.8939 31.3413C36.9153 31.5126 36.9021 31.6864 36.8551 31.8524C36.808 32.0185 36.7281 32.1734 36.62 32.308C32.764 37.128 26.862 40 20.48 40C9.166 40 0 31.046 0 20C0 8.954 9.168 0 20.48 0ZM34.196 14.32L39.608 19.734C40.132 20.256 40.142 21.094 39.632 21.606L34.344 26.892C34.22 27.0141 34.0731 27.1104 33.9118 27.1755C33.7504 27.2406 33.5778 27.2731 33.4038 27.2713C33.2299 27.2694 33.058 27.2332 32.8981 27.1647C32.7381 27.0961 32.5933 26.9967 32.472 26.872C32.3469 26.7508 32.247 26.6059 32.1781 26.4459C32.1093 26.2859 32.0728 26.1138 32.0707 25.9396C32.0687 25.7654 32.1011 25.5925 32.1662 25.4309C32.2313 25.2693 32.3278 25.1221 32.45 24.998L35.544 21.904H14.924C14.75 21.9066 14.5772 21.8749 14.4155 21.8104C14.2538 21.746 14.1065 21.6503 13.9819 21.5287C13.8574 21.4072 13.7581 21.2622 13.6898 21.1021C13.6215 20.942 13.5856 20.77 13.584 20.596C13.584 19.872 14.184 19.286 14.924 19.286H35.462L32.346 16.17C32.2212 16.0488 32.1216 15.9041 32.0529 15.7442C31.9842 15.5844 31.9478 15.4125 31.9457 15.2386C31.9437 15.0646 31.976 14.8919 32.041 14.7305C32.1059 14.5691 32.2021 14.4221 32.324 14.298C32.4481 14.1761 32.5951 14.0799 32.7565 14.015C32.9179 13.95 33.0906 13.9177 33.2646 13.9197C33.4385 13.9218 33.6104 13.9582 33.7702 14.0269C33.9301 14.0956 34.0748 14.1952 34.196 14.32Z" fill="black"/>
</g>
<defs>
<clipPath id="clip0_343_134">
<rect width="40" height="40" fill="white"/>
</clipPath>
</defs>
</svg>
