<svg width="56" height="56" viewBox="0 0 56 56" fill="none" xmlns="http://www.w3.org/2000/svg">
<path d="M2.3335 51.3333C2.3335 52.5933 3.3835 53.6666 4.66683 53.6666H35.0002C36.3068 53.6666 37.3335 52.5933 37.3335 51.3333V48.9999H2.3335V51.3333ZM19.8335 20.9999C11.0835 20.9999 2.3335 25.6666 2.3335 34.9999H37.3335C37.3335 25.6666 28.5835 20.9999 19.8335 20.9999ZM8.44683 30.3333C11.0368 26.7166 16.5435 25.6666 19.8335 25.6666C23.1235 25.6666 28.6302 26.7166 31.2202 30.3333H8.44683ZM2.3335 39.6666H37.3335V44.3333H2.3335V39.6666ZM42.0002 11.6666V2.33325H37.3335V11.6666H25.6668L26.2035 16.3333H48.5102L45.2435 48.9999H42.0002V53.6666H46.0135C47.9735 53.6666 49.5835 52.1499 49.8168 50.2366L53.6668 11.6666H42.0002Z" fill="black"/>
</svg>
