<svg width="40" height="40" viewBox="0 0 40 40" fill="none" xmlns="http://www.w3.org/2000/svg">
<path d="M4.64529 3.80008C4.80277 3.75352 4.96787 3.73844 5.13118 3.75571C5.29448 3.77298 5.45278 3.82226 5.59704 3.90074C5.74129 3.97921 5.86867 4.08533 5.97189 4.21305C6.07511 4.34077 6.15216 4.48757 6.19863 4.64508L7.11529 7.75008H31.5403C34.607 7.75008 36.9486 10.6117 36.0653 13.6001L33.307 22.9334C32.7203 24.9217 30.8553 26.2501 28.782 26.2501H13.522C11.4486 26.2501 9.58529 24.9217 8.99696 22.9334L3.80196 5.35341C3.70837 5.03582 3.7446 4.69407 3.90271 4.40316C4.06082 4.11225 4.32788 3.89429 4.64529 3.80008ZM10.417 32.5001C10.417 31.5055 10.812 30.5517 11.5153 29.8484C12.2186 29.1452 13.1724 28.7501 14.167 28.7501C15.1615 28.7501 16.1153 29.1452 16.8186 29.8484C17.5219 30.5517 17.917 31.5055 17.917 32.5001C17.917 33.4946 17.5219 34.4485 16.8186 35.1517C16.1153 35.855 15.1615 36.2501 14.167 36.2501C13.1724 36.2501 12.2186 35.855 11.5153 35.1517C10.812 34.4485 10.417 33.4946 10.417 32.5001ZM23.7503 32.5001C23.7503 32.0076 23.8473 31.52 24.0357 31.065C24.2242 30.61 24.5004 30.1966 24.8486 29.8484C25.1969 29.5002 25.6103 29.224 26.0652 29.0355C26.5202 28.8471 27.0078 28.7501 27.5003 28.7501C27.9928 28.7501 28.4804 28.8471 28.9354 29.0355C29.3903 29.224 29.8037 29.5002 30.1519 29.8484C30.5002 30.1966 30.7764 30.61 30.9648 31.065C31.1533 31.52 31.2503 32.0076 31.2503 32.5001C31.2503 33.4946 30.8552 34.4485 30.1519 35.1517C29.4487 35.855 28.4949 36.2501 27.5003 36.2501C26.5057 36.2501 25.5519 35.855 24.8486 35.1517C24.1454 34.4485 23.7503 33.4946 23.7503 32.5001Z" fill="black"/>
</svg>
