<svg width="55" height="55" viewBox="0 0 55 55" fill="none" xmlns="http://www.w3.org/2000/svg">
<path d="M18.3333 22.9167V18.3333C18.3333 12.006 21.1726 6.875 27.4999 6.875C33.8272 6.875 36.6666 12.006 36.6666 18.3333V22.9167M8.02075 40.7917V30.25C8.02075 27.6833 8.02075 26.4 8.52034 25.4215C8.95936 24.5582 9.66053 23.8563 10.5233 23.4163C11.5041 22.919 12.7874 22.919 15.3541 22.919H39.6457C42.2124 22.919 43.4958 22.919 44.4766 23.4163C45.339 23.8557 46.0401 24.5568 46.4795 25.4192C46.9791 26.4 46.9791 27.6833 46.9791 30.25V40.7917C46.9791 43.3583 46.9791 44.6417 46.4795 45.6225C46.0401 46.4849 45.339 47.186 44.4766 47.6254C43.4958 48.125 42.2124 48.125 39.6457 48.125H15.3541C12.7874 48.125 11.5041 48.125 10.5233 47.6254C9.66088 47.186 8.95975 46.4849 8.52034 45.6225C8.02075 44.644 8.02075 43.3606 8.02075 40.7917Z" stroke="black" stroke-width="1.5" stroke-linecap="round" stroke-linejoin="round"/>
</svg>
