<svg width="40" height="40" viewBox="0 0 40 40" fill="none" xmlns="http://www.w3.org/2000/svg">
<path d="M20 4C17.8783 4 15.8434 4.84285 14.3431 6.34315C12.8429 7.84344 12 9.87827 12 12C12 14.1217 12.8429 16.1566 14.3431 17.6569C15.8434 19.1571 17.8783 20 20 20C22.1217 20 24.1566 19.1571 25.6569 17.6569C27.1571 16.1566 28 14.1217 28 12C28 9.87827 27.1571 7.84344 25.6569 6.34315C24.1566 4.84285 22.1217 4 20 4ZM10.018 22C9.4912 21.9976 8.96912 22.0993 8.48174 22.2993C7.99436 22.4993 7.55127 22.7935 7.17793 23.1652C6.80459 23.5369 6.50834 23.9786 6.30619 24.4651C6.10405 24.9516 5.99999 25.4732 6 26C6 29.382 7.666 31.932 10.27 33.594C12.834 35.228 16.29 36 20 36C23.71 36 27.166 35.228 29.73 33.594C32.334 31.934 34 29.38 34 26C34 24.9391 33.5786 23.9217 32.8284 23.1716C32.0783 22.4214 31.0609 22 30 22H10.018Z" fill="black"/>
</svg>
