<svg width="57" height="51" viewBox="0 0 57 51" fill="none" xmlns="http://www.w3.org/2000/svg">
<path d="M53.25 14.475L42.25 19.375M42.25 19.375L40.875 19.9875L28.5 25.5M42.25 19.375V27.95M42.25 19.375L16.125 7.125M28.5 25.5L3.75 14.475M28.5 25.5V48.775M38.3395 4.3859L43.8395 6.9584C49.7547 9.72445 52.7137 11.1062 54.3582 13.593C56 16.0773 56 19.1717 56 25.3579V25.6446C56 31.8284 56 34.9227 54.3582 37.407C52.7137 39.8938 49.7547 41.278 43.8395 44.0441L38.3395 46.6141C33.5105 48.8706 31.096 50 28.5 50C25.904 50 23.4895 48.873 18.6605 46.6141L13.1605 44.0416C7.24525 41.2756 4.28625 39.8938 2.64175 37.407C1 34.9227 1 31.8284 1 25.647V25.3604C1 19.1741 1 16.0797 2.64175 13.5954C4.28625 11.1087 7.24525 9.72445 13.1605 6.96085L18.6605 4.38835C23.4895 2.12945 25.904 1 28.5 1C31.096 1 33.5105 2.127 38.3395 4.3859Z" stroke="black" stroke-width="1.5" stroke-linecap="round"/>
</svg>
