<svg width="37" height="36" viewBox="0 0 37 36" fill="none" xmlns="http://www.w3.org/2000/svg">
<path d="M8.6171 12.3617L15.871 0.896477C16.0658 0.58193 16.3092 0.353568 16.6013 0.211392C16.8934 0.069217 17.2017 -0.00124163 17.5263 1.65551e-05C17.8509 0.00127475 18.1592 0.0723628 18.4513 0.21328C18.7434 0.354197 18.9868 0.58193 19.1816 0.896477L26.4355 12.3617C26.6303 12.6763 26.7276 13.0066 26.7276 13.3526C26.7276 13.6986 26.6465 14.0131 26.4842 14.2962C26.3219 14.5793 26.0947 14.8077 25.8026 14.9813C25.5105 15.1549 25.1697 15.2411 24.7803 15.2398H10.2724C9.88289 15.2398 9.5421 15.1537 9.25 14.9813C8.95789 14.8089 8.7307 14.5806 8.56842 14.2962C8.40614 14.0118 8.325 13.6973 8.325 13.3526C8.325 13.0078 8.42237 12.6775 8.6171 12.3617ZM28.2368 36C25.8026 36 23.7339 35.1746 22.0306 33.5239C20.3273 31.8731 19.475 29.8676 19.4737 27.5072C19.4724 25.1468 20.3247 23.1419 22.0306 21.4924C23.7365 19.8429 25.8052 19.0169 28.2368 19.0144C30.6684 19.0119 32.7378 19.8379 34.445 21.4924C36.1522 23.1469 37.0039 25.1519 37 27.5072C36.9961 29.8625 36.1444 31.8681 34.445 33.5239C32.7456 35.1796 30.6762 36.005 28.2368 36ZM0 33.169V21.8453C0 21.3106 0.186947 20.8627 0.560842 20.5016C0.934737 20.1405 1.39691 19.9593 1.94737 19.9581H13.6316C14.1833 19.9581 14.6462 20.1392 15.02 20.5016C15.3939 20.864 15.5802 21.3119 15.5789 21.8453V33.169C15.5789 33.7038 15.392 34.1523 15.0181 34.5147C14.6442 34.877 14.182 35.0576 13.6316 35.0563H1.94737C1.39561 35.0563 0.933438 34.8752 0.560842 34.5128C0.188246 34.1504 0.00129825 33.7025 0 33.169Z" fill="black"/>
</svg>
