<svg width="59" height="59" viewBox="0 0 59 59" fill="none" xmlns="http://www.w3.org/2000/svg">
<path d="M19.6665 51.625V46.7083H9.83317C8.48109 46.7083 7.32403 46.2273 6.362 45.2653C5.39998 44.3033 4.91814 43.1454 4.9165 41.7917V12.2917C4.9165 10.9396 5.39834 9.78253 6.362 8.8205C7.32567 7.85847 8.48273 7.37664 9.83317 7.375H49.1665C50.5186 7.375 51.6765 7.85683 52.6401 8.8205C53.6038 9.78417 54.0848 10.9412 54.0832 12.2917V41.7917C54.0832 43.1437 53.6022 44.3016 52.6401 45.2653C51.6781 46.229 50.5202 46.71 49.1665 46.7083H39.3332V51.625H19.6665ZM9.83317 41.7917H49.1665V12.2917H9.83317V41.7917Z" fill="black"/>
</svg>
